<mxfile host="app.diagrams.net" modified="2022-11-28T06:11:25.306Z" agent="5.0 (Windows NT 10.0; Win64; x64) AppleWebKit/537.36 (KHTML, like Gecko) Chrome/107.0.0.0 Safari/537.36 Edg/107.0.1418.56" etag="A3SSBMGTFMfPyU9nj4W1" version="20.6.0" type="github" pages="3">
  <diagram id="R2lEEEUBdFMjLlhIrx00" name="Page-1">
    <mxGraphModel dx="701" dy="427" grid="1" gridSize="10" guides="1" tooltips="1" connect="1" arrows="1" fold="1" page="1" pageScale="1" pageWidth="1100" pageHeight="850" math="0" shadow="0" extFonts="Permanent Marker^https://fonts.googleapis.com/css?family=Permanent+Marker">
      <root>
        <mxCell id="0" />
        <mxCell id="1" parent="0" />
        <mxCell id="C-vyLk0tnHw3VtMMgP7b-23" value="Employees" style="shape=table;startSize=40;container=1;collapsible=1;childLayout=tableLayout;fixedRows=1;rowLines=0;fontStyle=1;align=center;resizeLast=1;fontSize=16;" parent="1" vertex="1">
          <mxGeometry x="40" y="40" width="160" height="130" as="geometry" />
        </mxCell>
        <mxCell id="C-vyLk0tnHw3VtMMgP7b-24" value="" style="shape=partialRectangle;collapsible=0;dropTarget=0;pointerEvents=0;fillColor=none;points=[[0,0.5],[1,0.5]];portConstraint=eastwest;top=0;left=0;right=0;bottom=1;" parent="C-vyLk0tnHw3VtMMgP7b-23" vertex="1">
          <mxGeometry y="40" width="160" height="30" as="geometry" />
        </mxCell>
        <mxCell id="C-vyLk0tnHw3VtMMgP7b-25" value="PK" style="shape=partialRectangle;overflow=hidden;connectable=0;fillColor=none;top=0;left=0;bottom=0;right=0;fontStyle=1;" parent="C-vyLk0tnHw3VtMMgP7b-24" vertex="1">
          <mxGeometry width="30" height="30" as="geometry">
            <mxRectangle width="30" height="30" as="alternateBounds" />
          </mxGeometry>
        </mxCell>
        <mxCell id="C-vyLk0tnHw3VtMMgP7b-26" value="ID" style="shape=partialRectangle;overflow=hidden;connectable=0;fillColor=none;top=0;left=0;bottom=0;right=0;align=left;spacingLeft=6;fontStyle=5;" parent="C-vyLk0tnHw3VtMMgP7b-24" vertex="1">
          <mxGeometry x="30" width="130" height="30" as="geometry">
            <mxRectangle width="130" height="30" as="alternateBounds" />
          </mxGeometry>
        </mxCell>
        <mxCell id="C-vyLk0tnHw3VtMMgP7b-27" value="" style="shape=partialRectangle;collapsible=0;dropTarget=0;pointerEvents=0;fillColor=none;points=[[0,0.5],[1,0.5]];portConstraint=eastwest;top=0;left=0;right=0;bottom=0;" parent="C-vyLk0tnHw3VtMMgP7b-23" vertex="1">
          <mxGeometry y="70" width="160" height="30" as="geometry" />
        </mxCell>
        <mxCell id="C-vyLk0tnHw3VtMMgP7b-28" value="" style="shape=partialRectangle;overflow=hidden;connectable=0;fillColor=none;top=0;left=0;bottom=0;right=0;" parent="C-vyLk0tnHw3VtMMgP7b-27" vertex="1">
          <mxGeometry width="30" height="30" as="geometry">
            <mxRectangle width="30" height="30" as="alternateBounds" />
          </mxGeometry>
        </mxCell>
        <mxCell id="C-vyLk0tnHw3VtMMgP7b-29" value="Name" style="shape=partialRectangle;overflow=hidden;connectable=0;fillColor=none;top=0;left=0;bottom=0;right=0;align=left;spacingLeft=6;" parent="C-vyLk0tnHw3VtMMgP7b-27" vertex="1">
          <mxGeometry x="30" width="130" height="30" as="geometry">
            <mxRectangle width="130" height="30" as="alternateBounds" />
          </mxGeometry>
        </mxCell>
        <mxCell id="V11mCeOOvvxg2wGsEx_k-1" style="shape=partialRectangle;collapsible=0;dropTarget=0;pointerEvents=0;fillColor=none;points=[[0,0.5],[1,0.5]];portConstraint=eastwest;top=0;left=0;right=0;bottom=0;" vertex="1" parent="C-vyLk0tnHw3VtMMgP7b-23">
          <mxGeometry y="100" width="160" height="30" as="geometry" />
        </mxCell>
        <mxCell id="V11mCeOOvvxg2wGsEx_k-2" value="FK" style="shape=partialRectangle;overflow=hidden;connectable=0;fillColor=none;top=0;left=0;bottom=0;right=0;" vertex="1" parent="V11mCeOOvvxg2wGsEx_k-1">
          <mxGeometry width="30" height="30" as="geometry">
            <mxRectangle width="30" height="30" as="alternateBounds" />
          </mxGeometry>
        </mxCell>
        <mxCell id="V11mCeOOvvxg2wGsEx_k-3" value="ManagerID" style="shape=partialRectangle;overflow=hidden;connectable=0;fillColor=none;top=0;left=0;bottom=0;right=0;align=left;spacingLeft=6;" vertex="1" parent="V11mCeOOvvxg2wGsEx_k-1">
          <mxGeometry x="30" width="130" height="30" as="geometry">
            <mxRectangle width="130" height="30" as="alternateBounds" />
          </mxGeometry>
        </mxCell>
        <mxCell id="V11mCeOOvvxg2wGsEx_k-4" value="" style="edgeStyle=entityRelationEdgeStyle;fontSize=12;html=1;endArrow=none;rounded=0;exitX=1;exitY=0.5;exitDx=0;exitDy=0;entryX=1;entryY=0.5;entryDx=0;entryDy=0;endFill=0;" edge="1" parent="C-vyLk0tnHw3VtMMgP7b-23" source="C-vyLk0tnHw3VtMMgP7b-24" target="V11mCeOOvvxg2wGsEx_k-1">
          <mxGeometry width="100" height="100" relative="1" as="geometry">
            <mxPoint x="230" y="260" as="sourcePoint" />
            <mxPoint x="330" y="160" as="targetPoint" />
          </mxGeometry>
        </mxCell>
        <mxCell id="V11mCeOOvvxg2wGsEx_k-7" value="M" style="edgeLabel;html=1;align=center;verticalAlign=middle;resizable=0;points=[];" vertex="1" connectable="0" parent="V11mCeOOvvxg2wGsEx_k-4">
          <mxGeometry x="0.6278" relative="1" as="geometry">
            <mxPoint x="-12" y="-15" as="offset" />
          </mxGeometry>
        </mxCell>
        <mxCell id="V11mCeOOvvxg2wGsEx_k-8" value="1" style="edgeLabel;html=1;align=center;verticalAlign=middle;resizable=0;points=[];" vertex="1" connectable="0" parent="V11mCeOOvvxg2wGsEx_k-4">
          <mxGeometry x="-0.8111" y="3" relative="1" as="geometry">
            <mxPoint y="-12" as="offset" />
          </mxGeometry>
        </mxCell>
        <mxCell id="V11mCeOOvvxg2wGsEx_k-11" value="Flights" style="shape=table;startSize=40;container=1;collapsible=1;childLayout=tableLayout;fixedRows=1;rowLines=0;fontStyle=1;align=center;resizeLast=1;fontSize=16;" vertex="1" parent="1">
          <mxGeometry x="560" y="40" width="160" height="160" as="geometry" />
        </mxCell>
        <mxCell id="V11mCeOOvvxg2wGsEx_k-12" value="" style="shape=partialRectangle;collapsible=0;dropTarget=0;pointerEvents=0;fillColor=none;points=[[0,0.5],[1,0.5]];portConstraint=eastwest;top=0;left=0;right=0;bottom=1;" vertex="1" parent="V11mCeOOvvxg2wGsEx_k-11">
          <mxGeometry y="40" width="160" height="30" as="geometry" />
        </mxCell>
        <mxCell id="V11mCeOOvvxg2wGsEx_k-13" value="PK" style="shape=partialRectangle;overflow=hidden;connectable=0;fillColor=none;top=0;left=0;bottom=0;right=0;fontStyle=1;" vertex="1" parent="V11mCeOOvvxg2wGsEx_k-12">
          <mxGeometry width="30" height="30" as="geometry">
            <mxRectangle width="30" height="30" as="alternateBounds" />
          </mxGeometry>
        </mxCell>
        <mxCell id="V11mCeOOvvxg2wGsEx_k-14" value="Flight#" style="shape=partialRectangle;overflow=hidden;connectable=0;fillColor=none;top=0;left=0;bottom=0;right=0;align=left;spacingLeft=6;fontStyle=5;" vertex="1" parent="V11mCeOOvvxg2wGsEx_k-12">
          <mxGeometry x="30" width="130" height="30" as="geometry">
            <mxRectangle width="130" height="30" as="alternateBounds" />
          </mxGeometry>
        </mxCell>
        <mxCell id="V11mCeOOvvxg2wGsEx_k-15" value="" style="shape=partialRectangle;collapsible=0;dropTarget=0;pointerEvents=0;fillColor=none;points=[[0,0.5],[1,0.5]];portConstraint=eastwest;top=0;left=0;right=0;bottom=0;" vertex="1" parent="V11mCeOOvvxg2wGsEx_k-11">
          <mxGeometry y="70" width="160" height="30" as="geometry" />
        </mxCell>
        <mxCell id="V11mCeOOvvxg2wGsEx_k-16" value="" style="shape=partialRectangle;overflow=hidden;connectable=0;fillColor=none;top=0;left=0;bottom=0;right=0;" vertex="1" parent="V11mCeOOvvxg2wGsEx_k-15">
          <mxGeometry width="30" height="30" as="geometry">
            <mxRectangle width="30" height="30" as="alternateBounds" />
          </mxGeometry>
        </mxCell>
        <mxCell id="V11mCeOOvvxg2wGsEx_k-17" value="Date" style="shape=partialRectangle;overflow=hidden;connectable=0;fillColor=none;top=0;left=0;bottom=0;right=0;align=left;spacingLeft=6;" vertex="1" parent="V11mCeOOvvxg2wGsEx_k-15">
          <mxGeometry x="30" width="130" height="30" as="geometry">
            <mxRectangle width="130" height="30" as="alternateBounds" />
          </mxGeometry>
        </mxCell>
        <mxCell id="V11mCeOOvvxg2wGsEx_k-18" style="shape=partialRectangle;collapsible=0;dropTarget=0;pointerEvents=0;fillColor=none;points=[[0,0.5],[1,0.5]];portConstraint=eastwest;top=0;left=0;right=0;bottom=0;" vertex="1" parent="V11mCeOOvvxg2wGsEx_k-11">
          <mxGeometry y="100" width="160" height="30" as="geometry" />
        </mxCell>
        <mxCell id="V11mCeOOvvxg2wGsEx_k-19" value="FK1" style="shape=partialRectangle;overflow=hidden;connectable=0;fillColor=none;top=0;left=0;bottom=0;right=0;" vertex="1" parent="V11mCeOOvvxg2wGsEx_k-18">
          <mxGeometry width="30" height="30" as="geometry">
            <mxRectangle width="30" height="30" as="alternateBounds" />
          </mxGeometry>
        </mxCell>
        <mxCell id="V11mCeOOvvxg2wGsEx_k-20" value="From" style="shape=partialRectangle;overflow=hidden;connectable=0;fillColor=none;top=0;left=0;bottom=0;right=0;align=left;spacingLeft=6;" vertex="1" parent="V11mCeOOvvxg2wGsEx_k-18">
          <mxGeometry x="30" width="130" height="30" as="geometry">
            <mxRectangle width="130" height="30" as="alternateBounds" />
          </mxGeometry>
        </mxCell>
        <mxCell id="V11mCeOOvvxg2wGsEx_k-40" style="shape=partialRectangle;collapsible=0;dropTarget=0;pointerEvents=0;fillColor=none;points=[[0,0.5],[1,0.5]];portConstraint=eastwest;top=0;left=0;right=0;bottom=0;" vertex="1" parent="V11mCeOOvvxg2wGsEx_k-11">
          <mxGeometry y="130" width="160" height="30" as="geometry" />
        </mxCell>
        <mxCell id="V11mCeOOvvxg2wGsEx_k-41" value="FK2" style="shape=partialRectangle;overflow=hidden;connectable=0;fillColor=none;top=0;left=0;bottom=0;right=0;" vertex="1" parent="V11mCeOOvvxg2wGsEx_k-40">
          <mxGeometry width="30" height="30" as="geometry">
            <mxRectangle width="30" height="30" as="alternateBounds" />
          </mxGeometry>
        </mxCell>
        <mxCell id="V11mCeOOvvxg2wGsEx_k-42" value="To" style="shape=partialRectangle;overflow=hidden;connectable=0;fillColor=none;top=0;left=0;bottom=0;right=0;align=left;spacingLeft=6;" vertex="1" parent="V11mCeOOvvxg2wGsEx_k-40">
          <mxGeometry x="30" width="130" height="30" as="geometry">
            <mxRectangle width="130" height="30" as="alternateBounds" />
          </mxGeometry>
        </mxCell>
        <mxCell id="V11mCeOOvvxg2wGsEx_k-24" value="Locations" style="shape=table;startSize=40;container=1;collapsible=1;childLayout=tableLayout;fixedRows=1;rowLines=0;fontStyle=1;align=center;resizeLast=1;fontSize=16;" vertex="1" parent="1">
          <mxGeometry x="840" y="40" width="160" height="100" as="geometry" />
        </mxCell>
        <mxCell id="V11mCeOOvvxg2wGsEx_k-25" value="" style="shape=partialRectangle;collapsible=0;dropTarget=0;pointerEvents=0;fillColor=none;points=[[0,0.5],[1,0.5]];portConstraint=eastwest;top=0;left=0;right=0;bottom=1;" vertex="1" parent="V11mCeOOvvxg2wGsEx_k-24">
          <mxGeometry y="40" width="160" height="30" as="geometry" />
        </mxCell>
        <mxCell id="V11mCeOOvvxg2wGsEx_k-26" value="PK" style="shape=partialRectangle;overflow=hidden;connectable=0;fillColor=none;top=0;left=0;bottom=0;right=0;fontStyle=1;" vertex="1" parent="V11mCeOOvvxg2wGsEx_k-25">
          <mxGeometry width="30" height="30" as="geometry">
            <mxRectangle width="30" height="30" as="alternateBounds" />
          </mxGeometry>
        </mxCell>
        <mxCell id="V11mCeOOvvxg2wGsEx_k-27" value="Code" style="shape=partialRectangle;overflow=hidden;connectable=0;fillColor=none;top=0;left=0;bottom=0;right=0;align=left;spacingLeft=6;fontStyle=5;" vertex="1" parent="V11mCeOOvvxg2wGsEx_k-25">
          <mxGeometry x="30" width="130" height="30" as="geometry">
            <mxRectangle width="130" height="30" as="alternateBounds" />
          </mxGeometry>
        </mxCell>
        <mxCell id="V11mCeOOvvxg2wGsEx_k-28" value="" style="shape=partialRectangle;collapsible=0;dropTarget=0;pointerEvents=0;fillColor=none;points=[[0,0.5],[1,0.5]];portConstraint=eastwest;top=0;left=0;right=0;bottom=0;" vertex="1" parent="V11mCeOOvvxg2wGsEx_k-24">
          <mxGeometry y="70" width="160" height="30" as="geometry" />
        </mxCell>
        <mxCell id="V11mCeOOvvxg2wGsEx_k-29" value="" style="shape=partialRectangle;overflow=hidden;connectable=0;fillColor=none;top=0;left=0;bottom=0;right=0;" vertex="1" parent="V11mCeOOvvxg2wGsEx_k-28">
          <mxGeometry width="30" height="30" as="geometry">
            <mxRectangle width="30" height="30" as="alternateBounds" />
          </mxGeometry>
        </mxCell>
        <mxCell id="V11mCeOOvvxg2wGsEx_k-30" value="Name" style="shape=partialRectangle;overflow=hidden;connectable=0;fillColor=none;top=0;left=0;bottom=0;right=0;align=left;spacingLeft=6;" vertex="1" parent="V11mCeOOvvxg2wGsEx_k-28">
          <mxGeometry x="30" width="130" height="30" as="geometry">
            <mxRectangle width="130" height="30" as="alternateBounds" />
          </mxGeometry>
        </mxCell>
        <mxCell id="V11mCeOOvvxg2wGsEx_k-34" value="" style="edgeStyle=entityRelationEdgeStyle;fontSize=12;html=1;endArrow=ERoneToMany;rounded=0;exitX=1;exitY=0.5;exitDx=0;exitDy=0;entryX=1;entryY=0.5;entryDx=0;entryDy=0;" edge="1" parent="V11mCeOOvvxg2wGsEx_k-24" source="V11mCeOOvvxg2wGsEx_k-25" target="V11mCeOOvvxg2wGsEx_k-31">
          <mxGeometry width="100" height="100" relative="1" as="geometry">
            <mxPoint x="230" y="260" as="sourcePoint" />
            <mxPoint x="330" y="160" as="targetPoint" />
          </mxGeometry>
        </mxCell>
        <mxCell id="V11mCeOOvvxg2wGsEx_k-35" value="M" style="edgeLabel;html=1;align=center;verticalAlign=middle;resizable=0;points=[];" vertex="1" connectable="0" parent="V11mCeOOvvxg2wGsEx_k-34">
          <mxGeometry x="0.6278" relative="1" as="geometry">
            <mxPoint x="-12" y="-15" as="offset" />
          </mxGeometry>
        </mxCell>
        <mxCell id="V11mCeOOvvxg2wGsEx_k-36" value="1" style="edgeLabel;html=1;align=center;verticalAlign=middle;resizable=0;points=[];" vertex="1" connectable="0" parent="V11mCeOOvvxg2wGsEx_k-34">
          <mxGeometry x="-0.8111" y="3" relative="1" as="geometry">
            <mxPoint y="-12" as="offset" />
          </mxGeometry>
        </mxCell>
        <mxCell id="V11mCeOOvvxg2wGsEx_k-37" value="" style="edgeStyle=entityRelationEdgeStyle;fontSize=12;html=1;endArrow=ERoneToMany;rounded=0;exitX=0;exitY=0.5;exitDx=0;exitDy=0;entryX=1;entryY=0.5;entryDx=0;entryDy=0;" edge="1" parent="1" source="V11mCeOOvvxg2wGsEx_k-25" target="V11mCeOOvvxg2wGsEx_k-40">
          <mxGeometry width="100" height="100" relative="1" as="geometry">
            <mxPoint x="810" y="140" as="sourcePoint" />
            <mxPoint x="790" y="240" as="targetPoint" />
          </mxGeometry>
        </mxCell>
        <mxCell id="V11mCeOOvvxg2wGsEx_k-38" value="M" style="edgeLabel;html=1;align=center;verticalAlign=middle;resizable=0;points=[];" vertex="1" connectable="0" parent="V11mCeOOvvxg2wGsEx_k-37">
          <mxGeometry x="0.6278" relative="1" as="geometry">
            <mxPoint x="-12" y="-15" as="offset" />
          </mxGeometry>
        </mxCell>
        <mxCell id="V11mCeOOvvxg2wGsEx_k-39" value="1" style="edgeLabel;html=1;align=center;verticalAlign=middle;resizable=0;points=[];" vertex="1" connectable="0" parent="V11mCeOOvvxg2wGsEx_k-37">
          <mxGeometry x="-0.8111" y="3" relative="1" as="geometry">
            <mxPoint y="-12" as="offset" />
          </mxGeometry>
        </mxCell>
        <mxCell id="V11mCeOOvvxg2wGsEx_k-21" value="" style="edgeStyle=entityRelationEdgeStyle;fontSize=12;html=1;endArrow=ERoneToMany;rounded=0;exitX=0;exitY=0.5;exitDx=0;exitDy=0;entryX=1;entryY=0.5;entryDx=0;entryDy=0;" edge="1" parent="1" source="V11mCeOOvvxg2wGsEx_k-25" target="V11mCeOOvvxg2wGsEx_k-18">
          <mxGeometry width="100" height="100" relative="1" as="geometry">
            <mxPoint x="790" y="300" as="sourcePoint" />
            <mxPoint x="890" y="200" as="targetPoint" />
          </mxGeometry>
        </mxCell>
        <mxCell id="V11mCeOOvvxg2wGsEx_k-22" value="M" style="edgeLabel;html=1;align=center;verticalAlign=middle;resizable=0;points=[];" vertex="1" connectable="0" parent="V11mCeOOvvxg2wGsEx_k-21">
          <mxGeometry x="0.6278" relative="1" as="geometry">
            <mxPoint x="-12" y="-15" as="offset" />
          </mxGeometry>
        </mxCell>
        <mxCell id="V11mCeOOvvxg2wGsEx_k-23" value="1" style="edgeLabel;html=1;align=center;verticalAlign=middle;resizable=0;points=[];" vertex="1" connectable="0" parent="V11mCeOOvvxg2wGsEx_k-21">
          <mxGeometry x="-0.8111" y="3" relative="1" as="geometry">
            <mxPoint y="-12" as="offset" />
          </mxGeometry>
        </mxCell>
        <mxCell id="V11mCeOOvvxg2wGsEx_k-45" value="Sales" style="shape=table;startSize=40;container=1;collapsible=1;childLayout=tableLayout;fixedRows=1;rowLines=0;fontStyle=1;align=center;resizeLast=1;fontSize=16;" vertex="1" parent="1">
          <mxGeometry x="40" y="320" width="160" height="130" as="geometry" />
        </mxCell>
        <mxCell id="V11mCeOOvvxg2wGsEx_k-49" value="" style="shape=partialRectangle;collapsible=0;dropTarget=0;pointerEvents=0;fillColor=none;points=[[0,0.5],[1,0.5]];portConstraint=eastwest;top=0;left=0;right=0;bottom=0;" vertex="1" parent="V11mCeOOvvxg2wGsEx_k-45">
          <mxGeometry y="40" width="160" height="30" as="geometry" />
        </mxCell>
        <mxCell id="V11mCeOOvvxg2wGsEx_k-50" value="" style="shape=partialRectangle;overflow=hidden;connectable=0;fillColor=none;top=0;left=0;bottom=0;right=0;" vertex="1" parent="V11mCeOOvvxg2wGsEx_k-49">
          <mxGeometry width="30" height="30" as="geometry">
            <mxRectangle width="30" height="30" as="alternateBounds" />
          </mxGeometry>
        </mxCell>
        <mxCell id="V11mCeOOvvxg2wGsEx_k-51" value="Date" style="shape=partialRectangle;overflow=hidden;connectable=0;fillColor=none;top=0;left=0;bottom=0;right=0;align=left;spacingLeft=6;" vertex="1" parent="V11mCeOOvvxg2wGsEx_k-49">
          <mxGeometry x="30" width="130" height="30" as="geometry">
            <mxRectangle width="130" height="30" as="alternateBounds" />
          </mxGeometry>
        </mxCell>
        <mxCell id="V11mCeOOvvxg2wGsEx_k-84" style="shape=partialRectangle;collapsible=0;dropTarget=0;pointerEvents=0;fillColor=none;points=[[0,0.5],[1,0.5]];portConstraint=eastwest;top=0;left=0;right=0;bottom=0;" vertex="1" parent="V11mCeOOvvxg2wGsEx_k-45">
          <mxGeometry y="70" width="160" height="30" as="geometry" />
        </mxCell>
        <mxCell id="V11mCeOOvvxg2wGsEx_k-85" value="FK1" style="shape=partialRectangle;overflow=hidden;connectable=0;fillColor=none;top=0;left=0;bottom=0;right=0;" vertex="1" parent="V11mCeOOvvxg2wGsEx_k-84">
          <mxGeometry width="30" height="30" as="geometry">
            <mxRectangle width="30" height="30" as="alternateBounds" />
          </mxGeometry>
        </mxCell>
        <mxCell id="V11mCeOOvvxg2wGsEx_k-86" value="EmployeeID" style="shape=partialRectangle;overflow=hidden;connectable=0;fillColor=none;top=0;left=0;bottom=0;right=0;align=left;spacingLeft=6;" vertex="1" parent="V11mCeOOvvxg2wGsEx_k-84">
          <mxGeometry x="30" width="130" height="30" as="geometry">
            <mxRectangle width="130" height="30" as="alternateBounds" />
          </mxGeometry>
        </mxCell>
        <mxCell id="V11mCeOOvvxg2wGsEx_k-52" style="shape=partialRectangle;collapsible=0;dropTarget=0;pointerEvents=0;fillColor=none;points=[[0,0.5],[1,0.5]];portConstraint=eastwest;top=0;left=0;right=0;bottom=0;" vertex="1" parent="V11mCeOOvvxg2wGsEx_k-45">
          <mxGeometry y="100" width="160" height="30" as="geometry" />
        </mxCell>
        <mxCell id="V11mCeOOvvxg2wGsEx_k-53" value="FK2" style="shape=partialRectangle;overflow=hidden;connectable=0;fillColor=none;top=0;left=0;bottom=0;right=0;" vertex="1" parent="V11mCeOOvvxg2wGsEx_k-52">
          <mxGeometry width="30" height="30" as="geometry">
            <mxRectangle width="30" height="30" as="alternateBounds" />
          </mxGeometry>
        </mxCell>
        <mxCell id="V11mCeOOvvxg2wGsEx_k-54" value="ProductCode" style="shape=partialRectangle;overflow=hidden;connectable=0;fillColor=none;top=0;left=0;bottom=0;right=0;align=left;spacingLeft=6;" vertex="1" parent="V11mCeOOvvxg2wGsEx_k-52">
          <mxGeometry x="30" width="130" height="30" as="geometry">
            <mxRectangle width="130" height="30" as="alternateBounds" />
          </mxGeometry>
        </mxCell>
        <mxCell id="V11mCeOOvvxg2wGsEx_k-55" value="" style="edgeStyle=entityRelationEdgeStyle;fontSize=12;html=1;endArrow=ERoneToMany;rounded=0;exitX=1;exitY=0.5;exitDx=0;exitDy=0;entryX=1;entryY=0.5;entryDx=0;entryDy=0;" edge="1" parent="V11mCeOOvvxg2wGsEx_k-45" source="V11mCeOOvvxg2wGsEx_k-46" target="V11mCeOOvvxg2wGsEx_k-52">
          <mxGeometry width="100" height="100" relative="1" as="geometry">
            <mxPoint x="230" y="260" as="sourcePoint" />
            <mxPoint x="330" y="160" as="targetPoint" />
          </mxGeometry>
        </mxCell>
        <mxCell id="V11mCeOOvvxg2wGsEx_k-56" value="M" style="edgeLabel;html=1;align=center;verticalAlign=middle;resizable=0;points=[];" vertex="1" connectable="0" parent="V11mCeOOvvxg2wGsEx_k-55">
          <mxGeometry x="0.6278" relative="1" as="geometry">
            <mxPoint x="-12" y="-15" as="offset" />
          </mxGeometry>
        </mxCell>
        <mxCell id="V11mCeOOvvxg2wGsEx_k-57" value="1" style="edgeLabel;html=1;align=center;verticalAlign=middle;resizable=0;points=[];" vertex="1" connectable="0" parent="V11mCeOOvvxg2wGsEx_k-55">
          <mxGeometry x="-0.8111" y="3" relative="1" as="geometry">
            <mxPoint y="-12" as="offset" />
          </mxGeometry>
        </mxCell>
        <mxCell id="V11mCeOOvvxg2wGsEx_k-58" value="Employees" style="shape=table;startSize=40;container=1;collapsible=1;childLayout=tableLayout;fixedRows=1;rowLines=0;fontStyle=1;align=center;resizeLast=1;fontSize=16;" vertex="1" parent="1">
          <mxGeometry x="320" y="280" width="160" height="100" as="geometry" />
        </mxCell>
        <mxCell id="V11mCeOOvvxg2wGsEx_k-59" value="" style="shape=partialRectangle;collapsible=0;dropTarget=0;pointerEvents=0;fillColor=none;points=[[0,0.5],[1,0.5]];portConstraint=eastwest;top=0;left=0;right=0;bottom=1;" vertex="1" parent="V11mCeOOvvxg2wGsEx_k-58">
          <mxGeometry y="40" width="160" height="30" as="geometry" />
        </mxCell>
        <mxCell id="V11mCeOOvvxg2wGsEx_k-60" value="PK" style="shape=partialRectangle;overflow=hidden;connectable=0;fillColor=none;top=0;left=0;bottom=0;right=0;fontStyle=1;" vertex="1" parent="V11mCeOOvvxg2wGsEx_k-59">
          <mxGeometry width="30" height="30" as="geometry">
            <mxRectangle width="30" height="30" as="alternateBounds" />
          </mxGeometry>
        </mxCell>
        <mxCell id="V11mCeOOvvxg2wGsEx_k-61" value="ID" style="shape=partialRectangle;overflow=hidden;connectable=0;fillColor=none;top=0;left=0;bottom=0;right=0;align=left;spacingLeft=6;fontStyle=5;" vertex="1" parent="V11mCeOOvvxg2wGsEx_k-59">
          <mxGeometry x="30" width="130" height="30" as="geometry">
            <mxRectangle width="130" height="30" as="alternateBounds" />
          </mxGeometry>
        </mxCell>
        <mxCell id="V11mCeOOvvxg2wGsEx_k-62" value="" style="shape=partialRectangle;collapsible=0;dropTarget=0;pointerEvents=0;fillColor=none;points=[[0,0.5],[1,0.5]];portConstraint=eastwest;top=0;left=0;right=0;bottom=0;" vertex="1" parent="V11mCeOOvvxg2wGsEx_k-58">
          <mxGeometry y="70" width="160" height="30" as="geometry" />
        </mxCell>
        <mxCell id="V11mCeOOvvxg2wGsEx_k-63" value="" style="shape=partialRectangle;overflow=hidden;connectable=0;fillColor=none;top=0;left=0;bottom=0;right=0;" vertex="1" parent="V11mCeOOvvxg2wGsEx_k-62">
          <mxGeometry width="30" height="30" as="geometry">
            <mxRectangle width="30" height="30" as="alternateBounds" />
          </mxGeometry>
        </mxCell>
        <mxCell id="V11mCeOOvvxg2wGsEx_k-64" value="Name" style="shape=partialRectangle;overflow=hidden;connectable=0;fillColor=none;top=0;left=0;bottom=0;right=0;align=left;spacingLeft=6;" vertex="1" parent="V11mCeOOvvxg2wGsEx_k-62">
          <mxGeometry x="30" width="130" height="30" as="geometry">
            <mxRectangle width="130" height="30" as="alternateBounds" />
          </mxGeometry>
        </mxCell>
        <mxCell id="V11mCeOOvvxg2wGsEx_k-71" value="Products" style="shape=table;startSize=40;container=1;collapsible=1;childLayout=tableLayout;fixedRows=1;rowLines=0;fontStyle=1;align=center;resizeLast=1;fontSize=16;" vertex="1" parent="1">
          <mxGeometry x="320" y="400" width="160" height="130" as="geometry" />
        </mxCell>
        <mxCell id="V11mCeOOvvxg2wGsEx_k-72" value="" style="shape=partialRectangle;collapsible=0;dropTarget=0;pointerEvents=0;fillColor=none;points=[[0,0.5],[1,0.5]];portConstraint=eastwest;top=0;left=0;right=0;bottom=1;" vertex="1" parent="V11mCeOOvvxg2wGsEx_k-71">
          <mxGeometry y="40" width="160" height="30" as="geometry" />
        </mxCell>
        <mxCell id="V11mCeOOvvxg2wGsEx_k-73" value="PK" style="shape=partialRectangle;overflow=hidden;connectable=0;fillColor=none;top=0;left=0;bottom=0;right=0;fontStyle=1;" vertex="1" parent="V11mCeOOvvxg2wGsEx_k-72">
          <mxGeometry width="30" height="30" as="geometry">
            <mxRectangle width="30" height="30" as="alternateBounds" />
          </mxGeometry>
        </mxCell>
        <mxCell id="V11mCeOOvvxg2wGsEx_k-74" value="Code" style="shape=partialRectangle;overflow=hidden;connectable=0;fillColor=none;top=0;left=0;bottom=0;right=0;align=left;spacingLeft=6;fontStyle=5;" vertex="1" parent="V11mCeOOvvxg2wGsEx_k-72">
          <mxGeometry x="30" width="130" height="30" as="geometry">
            <mxRectangle width="130" height="30" as="alternateBounds" />
          </mxGeometry>
        </mxCell>
        <mxCell id="V11mCeOOvvxg2wGsEx_k-75" value="" style="shape=partialRectangle;collapsible=0;dropTarget=0;pointerEvents=0;fillColor=none;points=[[0,0.5],[1,0.5]];portConstraint=eastwest;top=0;left=0;right=0;bottom=0;" vertex="1" parent="V11mCeOOvvxg2wGsEx_k-71">
          <mxGeometry y="70" width="160" height="30" as="geometry" />
        </mxCell>
        <mxCell id="V11mCeOOvvxg2wGsEx_k-76" value="" style="shape=partialRectangle;overflow=hidden;connectable=0;fillColor=none;top=0;left=0;bottom=0;right=0;" vertex="1" parent="V11mCeOOvvxg2wGsEx_k-75">
          <mxGeometry width="30" height="30" as="geometry">
            <mxRectangle width="30" height="30" as="alternateBounds" />
          </mxGeometry>
        </mxCell>
        <mxCell id="V11mCeOOvvxg2wGsEx_k-77" value="Name" style="shape=partialRectangle;overflow=hidden;connectable=0;fillColor=none;top=0;left=0;bottom=0;right=0;align=left;spacingLeft=6;" vertex="1" parent="V11mCeOOvvxg2wGsEx_k-75">
          <mxGeometry x="30" width="130" height="30" as="geometry">
            <mxRectangle width="130" height="30" as="alternateBounds" />
          </mxGeometry>
        </mxCell>
        <mxCell id="V11mCeOOvvxg2wGsEx_k-78" style="shape=partialRectangle;collapsible=0;dropTarget=0;pointerEvents=0;fillColor=none;points=[[0,0.5],[1,0.5]];portConstraint=eastwest;top=0;left=0;right=0;bottom=0;" vertex="1" parent="V11mCeOOvvxg2wGsEx_k-71">
          <mxGeometry y="100" width="160" height="30" as="geometry" />
        </mxCell>
        <mxCell id="V11mCeOOvvxg2wGsEx_k-79" value="" style="shape=partialRectangle;overflow=hidden;connectable=0;fillColor=none;top=0;left=0;bottom=0;right=0;" vertex="1" parent="V11mCeOOvvxg2wGsEx_k-78">
          <mxGeometry width="30" height="30" as="geometry">
            <mxRectangle width="30" height="30" as="alternateBounds" />
          </mxGeometry>
        </mxCell>
        <mxCell id="V11mCeOOvvxg2wGsEx_k-80" value="Price" style="shape=partialRectangle;overflow=hidden;connectable=0;fillColor=none;top=0;left=0;bottom=0;right=0;align=left;spacingLeft=6;" vertex="1" parent="V11mCeOOvvxg2wGsEx_k-78">
          <mxGeometry x="30" width="130" height="30" as="geometry">
            <mxRectangle width="130" height="30" as="alternateBounds" />
          </mxGeometry>
        </mxCell>
        <mxCell id="V11mCeOOvvxg2wGsEx_k-68" value="" style="edgeStyle=entityRelationEdgeStyle;fontSize=12;html=1;endArrow=none;rounded=0;exitX=0;exitY=0.5;exitDx=0;exitDy=0;entryX=1;entryY=0.5;entryDx=0;entryDy=0;endFill=0;" edge="1" parent="1" source="V11mCeOOvvxg2wGsEx_k-59" target="V11mCeOOvvxg2wGsEx_k-84">
          <mxGeometry width="100" height="100" relative="1" as="geometry">
            <mxPoint x="550" y="540" as="sourcePoint" />
            <mxPoint x="650" y="440" as="targetPoint" />
          </mxGeometry>
        </mxCell>
        <mxCell id="V11mCeOOvvxg2wGsEx_k-69" value="M" style="edgeLabel;html=1;align=center;verticalAlign=middle;resizable=0;points=[];" vertex="1" connectable="0" parent="V11mCeOOvvxg2wGsEx_k-68">
          <mxGeometry x="0.6278" relative="1" as="geometry">
            <mxPoint x="-12" y="-15" as="offset" />
          </mxGeometry>
        </mxCell>
        <mxCell id="V11mCeOOvvxg2wGsEx_k-70" value="1" style="edgeLabel;html=1;align=center;verticalAlign=middle;resizable=0;points=[];" vertex="1" connectable="0" parent="V11mCeOOvvxg2wGsEx_k-68">
          <mxGeometry x="-0.8111" y="3" relative="1" as="geometry">
            <mxPoint y="-12" as="offset" />
          </mxGeometry>
        </mxCell>
        <mxCell id="V11mCeOOvvxg2wGsEx_k-81" value="" style="edgeStyle=entityRelationEdgeStyle;fontSize=12;html=1;endArrow=none;rounded=0;exitX=0;exitY=0.5;exitDx=0;exitDy=0;entryX=1;entryY=0.5;entryDx=0;entryDy=0;endFill=0;" edge="1" parent="1" source="V11mCeOOvvxg2wGsEx_k-72" target="V11mCeOOvvxg2wGsEx_k-52">
          <mxGeometry width="100" height="100" relative="1" as="geometry">
            <mxPoint x="550" y="660" as="sourcePoint" />
            <mxPoint x="650" y="560" as="targetPoint" />
          </mxGeometry>
        </mxCell>
        <mxCell id="V11mCeOOvvxg2wGsEx_k-82" value="M" style="edgeLabel;html=1;align=center;verticalAlign=middle;resizable=0;points=[];" vertex="1" connectable="0" parent="V11mCeOOvvxg2wGsEx_k-81">
          <mxGeometry x="0.6278" relative="1" as="geometry">
            <mxPoint x="-12" y="-15" as="offset" />
          </mxGeometry>
        </mxCell>
        <mxCell id="V11mCeOOvvxg2wGsEx_k-83" value="1" style="edgeLabel;html=1;align=center;verticalAlign=middle;resizable=0;points=[];" vertex="1" connectable="0" parent="V11mCeOOvvxg2wGsEx_k-81">
          <mxGeometry x="-0.8111" y="3" relative="1" as="geometry">
            <mxPoint y="-12" as="offset" />
          </mxGeometry>
        </mxCell>
        <mxCell id="V11mCeOOvvxg2wGsEx_k-87" value="Sales" style="shape=table;startSize=40;container=1;collapsible=1;childLayout=tableLayout;fixedRows=1;rowLines=0;fontStyle=1;align=center;resizeLast=1;fontSize=16;" vertex="1" parent="1">
          <mxGeometry x="560" y="380" width="160" height="160" as="geometry" />
        </mxCell>
        <mxCell id="V11mCeOOvvxg2wGsEx_k-88" value="" style="shape=partialRectangle;collapsible=0;dropTarget=0;pointerEvents=0;fillColor=none;points=[[0,0.5],[1,0.5]];portConstraint=eastwest;top=0;left=0;right=0;bottom=0;" vertex="1" parent="V11mCeOOvvxg2wGsEx_k-87">
          <mxGeometry y="40" width="160" height="30" as="geometry" />
        </mxCell>
        <mxCell id="V11mCeOOvvxg2wGsEx_k-89" value="" style="shape=partialRectangle;overflow=hidden;connectable=0;fillColor=none;top=0;left=0;bottom=0;right=0;" vertex="1" parent="V11mCeOOvvxg2wGsEx_k-88">
          <mxGeometry width="30" height="30" as="geometry">
            <mxRectangle width="30" height="30" as="alternateBounds" />
          </mxGeometry>
        </mxCell>
        <mxCell id="V11mCeOOvvxg2wGsEx_k-90" value="Date" style="shape=partialRectangle;overflow=hidden;connectable=0;fillColor=none;top=0;left=0;bottom=0;right=0;align=left;spacingLeft=6;" vertex="1" parent="V11mCeOOvvxg2wGsEx_k-88">
          <mxGeometry x="30" width="130" height="30" as="geometry">
            <mxRectangle width="130" height="30" as="alternateBounds" />
          </mxGeometry>
        </mxCell>
        <mxCell id="V11mCeOOvvxg2wGsEx_k-123" style="shape=partialRectangle;collapsible=0;dropTarget=0;pointerEvents=0;fillColor=none;points=[[0,0.5],[1,0.5]];portConstraint=eastwest;top=0;left=0;right=0;bottom=0;" vertex="1" parent="V11mCeOOvvxg2wGsEx_k-87">
          <mxGeometry y="70" width="160" height="30" as="geometry" />
        </mxCell>
        <mxCell id="V11mCeOOvvxg2wGsEx_k-124" value="FK1" style="shape=partialRectangle;overflow=hidden;connectable=0;fillColor=none;top=0;left=0;bottom=0;right=0;" vertex="1" parent="V11mCeOOvvxg2wGsEx_k-123">
          <mxGeometry width="30" height="30" as="geometry">
            <mxRectangle width="30" height="30" as="alternateBounds" />
          </mxGeometry>
        </mxCell>
        <mxCell id="V11mCeOOvvxg2wGsEx_k-125" value="CustomerID" style="shape=partialRectangle;overflow=hidden;connectable=0;fillColor=none;top=0;left=0;bottom=0;right=0;align=left;spacingLeft=6;" vertex="1" parent="V11mCeOOvvxg2wGsEx_k-123">
          <mxGeometry x="30" width="130" height="30" as="geometry">
            <mxRectangle width="130" height="30" as="alternateBounds" />
          </mxGeometry>
        </mxCell>
        <mxCell id="V11mCeOOvvxg2wGsEx_k-91" style="shape=partialRectangle;collapsible=0;dropTarget=0;pointerEvents=0;fillColor=none;points=[[0,0.5],[1,0.5]];portConstraint=eastwest;top=0;left=0;right=0;bottom=0;" vertex="1" parent="V11mCeOOvvxg2wGsEx_k-87">
          <mxGeometry y="100" width="160" height="30" as="geometry" />
        </mxCell>
        <mxCell id="V11mCeOOvvxg2wGsEx_k-92" value="FK2" style="shape=partialRectangle;overflow=hidden;connectable=0;fillColor=none;top=0;left=0;bottom=0;right=0;" vertex="1" parent="V11mCeOOvvxg2wGsEx_k-91">
          <mxGeometry width="30" height="30" as="geometry">
            <mxRectangle width="30" height="30" as="alternateBounds" />
          </mxGeometry>
        </mxCell>
        <mxCell id="V11mCeOOvvxg2wGsEx_k-93" value="EmployeeID" style="shape=partialRectangle;overflow=hidden;connectable=0;fillColor=none;top=0;left=0;bottom=0;right=0;align=left;spacingLeft=6;" vertex="1" parent="V11mCeOOvvxg2wGsEx_k-91">
          <mxGeometry x="30" width="130" height="30" as="geometry">
            <mxRectangle width="130" height="30" as="alternateBounds" />
          </mxGeometry>
        </mxCell>
        <mxCell id="V11mCeOOvvxg2wGsEx_k-94" style="shape=partialRectangle;collapsible=0;dropTarget=0;pointerEvents=0;fillColor=none;points=[[0,0.5],[1,0.5]];portConstraint=eastwest;top=0;left=0;right=0;bottom=0;" vertex="1" parent="V11mCeOOvvxg2wGsEx_k-87">
          <mxGeometry y="130" width="160" height="30" as="geometry" />
        </mxCell>
        <mxCell id="V11mCeOOvvxg2wGsEx_k-95" value="FK3" style="shape=partialRectangle;overflow=hidden;connectable=0;fillColor=none;top=0;left=0;bottom=0;right=0;" vertex="1" parent="V11mCeOOvvxg2wGsEx_k-94">
          <mxGeometry width="30" height="30" as="geometry">
            <mxRectangle width="30" height="30" as="alternateBounds" />
          </mxGeometry>
        </mxCell>
        <mxCell id="V11mCeOOvvxg2wGsEx_k-96" value="ProductCode" style="shape=partialRectangle;overflow=hidden;connectable=0;fillColor=none;top=0;left=0;bottom=0;right=0;align=left;spacingLeft=6;" vertex="1" parent="V11mCeOOvvxg2wGsEx_k-94">
          <mxGeometry x="30" width="130" height="30" as="geometry">
            <mxRectangle width="130" height="30" as="alternateBounds" />
          </mxGeometry>
        </mxCell>
        <mxCell id="V11mCeOOvvxg2wGsEx_k-100" value="Employees" style="shape=table;startSize=40;container=1;collapsible=1;childLayout=tableLayout;fixedRows=1;rowLines=0;fontStyle=1;align=center;resizeLast=1;fontSize=16;" vertex="1" parent="1">
          <mxGeometry x="840" y="400" width="160" height="100" as="geometry" />
        </mxCell>
        <mxCell id="V11mCeOOvvxg2wGsEx_k-101" value="" style="shape=partialRectangle;collapsible=0;dropTarget=0;pointerEvents=0;fillColor=none;points=[[0,0.5],[1,0.5]];portConstraint=eastwest;top=0;left=0;right=0;bottom=1;" vertex="1" parent="V11mCeOOvvxg2wGsEx_k-100">
          <mxGeometry y="40" width="160" height="30" as="geometry" />
        </mxCell>
        <mxCell id="V11mCeOOvvxg2wGsEx_k-102" value="PK" style="shape=partialRectangle;overflow=hidden;connectable=0;fillColor=none;top=0;left=0;bottom=0;right=0;fontStyle=1;" vertex="1" parent="V11mCeOOvvxg2wGsEx_k-101">
          <mxGeometry width="30" height="30" as="geometry">
            <mxRectangle width="30" height="30" as="alternateBounds" />
          </mxGeometry>
        </mxCell>
        <mxCell id="V11mCeOOvvxg2wGsEx_k-103" value="ID" style="shape=partialRectangle;overflow=hidden;connectable=0;fillColor=none;top=0;left=0;bottom=0;right=0;align=left;spacingLeft=6;fontStyle=5;" vertex="1" parent="V11mCeOOvvxg2wGsEx_k-101">
          <mxGeometry x="30" width="130" height="30" as="geometry">
            <mxRectangle width="130" height="30" as="alternateBounds" />
          </mxGeometry>
        </mxCell>
        <mxCell id="V11mCeOOvvxg2wGsEx_k-104" value="" style="shape=partialRectangle;collapsible=0;dropTarget=0;pointerEvents=0;fillColor=none;points=[[0,0.5],[1,0.5]];portConstraint=eastwest;top=0;left=0;right=0;bottom=0;" vertex="1" parent="V11mCeOOvvxg2wGsEx_k-100">
          <mxGeometry y="70" width="160" height="30" as="geometry" />
        </mxCell>
        <mxCell id="V11mCeOOvvxg2wGsEx_k-105" value="" style="shape=partialRectangle;overflow=hidden;connectable=0;fillColor=none;top=0;left=0;bottom=0;right=0;" vertex="1" parent="V11mCeOOvvxg2wGsEx_k-104">
          <mxGeometry width="30" height="30" as="geometry">
            <mxRectangle width="30" height="30" as="alternateBounds" />
          </mxGeometry>
        </mxCell>
        <mxCell id="V11mCeOOvvxg2wGsEx_k-106" value="Name" style="shape=partialRectangle;overflow=hidden;connectable=0;fillColor=none;top=0;left=0;bottom=0;right=0;align=left;spacingLeft=6;" vertex="1" parent="V11mCeOOvvxg2wGsEx_k-104">
          <mxGeometry x="30" width="130" height="30" as="geometry">
            <mxRectangle width="130" height="30" as="alternateBounds" />
          </mxGeometry>
        </mxCell>
        <mxCell id="V11mCeOOvvxg2wGsEx_k-107" value="Products" style="shape=table;startSize=40;container=1;collapsible=1;childLayout=tableLayout;fixedRows=1;rowLines=0;fontStyle=1;align=center;resizeLast=1;fontSize=16;" vertex="1" parent="1">
          <mxGeometry x="840" y="520" width="160" height="130" as="geometry" />
        </mxCell>
        <mxCell id="V11mCeOOvvxg2wGsEx_k-108" value="" style="shape=partialRectangle;collapsible=0;dropTarget=0;pointerEvents=0;fillColor=none;points=[[0,0.5],[1,0.5]];portConstraint=eastwest;top=0;left=0;right=0;bottom=1;" vertex="1" parent="V11mCeOOvvxg2wGsEx_k-107">
          <mxGeometry y="40" width="160" height="30" as="geometry" />
        </mxCell>
        <mxCell id="V11mCeOOvvxg2wGsEx_k-109" value="PK" style="shape=partialRectangle;overflow=hidden;connectable=0;fillColor=none;top=0;left=0;bottom=0;right=0;fontStyle=1;" vertex="1" parent="V11mCeOOvvxg2wGsEx_k-108">
          <mxGeometry width="30" height="30" as="geometry">
            <mxRectangle width="30" height="30" as="alternateBounds" />
          </mxGeometry>
        </mxCell>
        <mxCell id="V11mCeOOvvxg2wGsEx_k-110" value="Code" style="shape=partialRectangle;overflow=hidden;connectable=0;fillColor=none;top=0;left=0;bottom=0;right=0;align=left;spacingLeft=6;fontStyle=5;" vertex="1" parent="V11mCeOOvvxg2wGsEx_k-108">
          <mxGeometry x="30" width="130" height="30" as="geometry">
            <mxRectangle width="130" height="30" as="alternateBounds" />
          </mxGeometry>
        </mxCell>
        <mxCell id="V11mCeOOvvxg2wGsEx_k-111" value="" style="shape=partialRectangle;collapsible=0;dropTarget=0;pointerEvents=0;fillColor=none;points=[[0,0.5],[1,0.5]];portConstraint=eastwest;top=0;left=0;right=0;bottom=0;" vertex="1" parent="V11mCeOOvvxg2wGsEx_k-107">
          <mxGeometry y="70" width="160" height="30" as="geometry" />
        </mxCell>
        <mxCell id="V11mCeOOvvxg2wGsEx_k-112" value="" style="shape=partialRectangle;overflow=hidden;connectable=0;fillColor=none;top=0;left=0;bottom=0;right=0;" vertex="1" parent="V11mCeOOvvxg2wGsEx_k-111">
          <mxGeometry width="30" height="30" as="geometry">
            <mxRectangle width="30" height="30" as="alternateBounds" />
          </mxGeometry>
        </mxCell>
        <mxCell id="V11mCeOOvvxg2wGsEx_k-113" value="Name" style="shape=partialRectangle;overflow=hidden;connectable=0;fillColor=none;top=0;left=0;bottom=0;right=0;align=left;spacingLeft=6;" vertex="1" parent="V11mCeOOvvxg2wGsEx_k-111">
          <mxGeometry x="30" width="130" height="30" as="geometry">
            <mxRectangle width="130" height="30" as="alternateBounds" />
          </mxGeometry>
        </mxCell>
        <mxCell id="V11mCeOOvvxg2wGsEx_k-114" style="shape=partialRectangle;collapsible=0;dropTarget=0;pointerEvents=0;fillColor=none;points=[[0,0.5],[1,0.5]];portConstraint=eastwest;top=0;left=0;right=0;bottom=0;" vertex="1" parent="V11mCeOOvvxg2wGsEx_k-107">
          <mxGeometry y="100" width="160" height="30" as="geometry" />
        </mxCell>
        <mxCell id="V11mCeOOvvxg2wGsEx_k-115" value="" style="shape=partialRectangle;overflow=hidden;connectable=0;fillColor=none;top=0;left=0;bottom=0;right=0;" vertex="1" parent="V11mCeOOvvxg2wGsEx_k-114">
          <mxGeometry width="30" height="30" as="geometry">
            <mxRectangle width="30" height="30" as="alternateBounds" />
          </mxGeometry>
        </mxCell>
        <mxCell id="V11mCeOOvvxg2wGsEx_k-116" value="Price" style="shape=partialRectangle;overflow=hidden;connectable=0;fillColor=none;top=0;left=0;bottom=0;right=0;align=left;spacingLeft=6;" vertex="1" parent="V11mCeOOvvxg2wGsEx_k-114">
          <mxGeometry x="30" width="130" height="30" as="geometry">
            <mxRectangle width="130" height="30" as="alternateBounds" />
          </mxGeometry>
        </mxCell>
        <mxCell id="V11mCeOOvvxg2wGsEx_k-117" value="" style="edgeStyle=entityRelationEdgeStyle;fontSize=12;html=1;endArrow=ERoneToMany;rounded=0;exitX=0;exitY=0.5;exitDx=0;exitDy=0;entryX=1;entryY=0.5;entryDx=0;entryDy=0;" edge="1" parent="1" source="V11mCeOOvvxg2wGsEx_k-101" target="V11mCeOOvvxg2wGsEx_k-91">
          <mxGeometry width="100" height="100" relative="1" as="geometry">
            <mxPoint x="1070" y="540" as="sourcePoint" />
            <mxPoint x="1170" y="440" as="targetPoint" />
          </mxGeometry>
        </mxCell>
        <mxCell id="V11mCeOOvvxg2wGsEx_k-118" value="M" style="edgeLabel;html=1;align=center;verticalAlign=middle;resizable=0;points=[];" vertex="1" connectable="0" parent="V11mCeOOvvxg2wGsEx_k-117">
          <mxGeometry x="0.6278" relative="1" as="geometry">
            <mxPoint x="-12" y="-15" as="offset" />
          </mxGeometry>
        </mxCell>
        <mxCell id="V11mCeOOvvxg2wGsEx_k-119" value="1" style="edgeLabel;html=1;align=center;verticalAlign=middle;resizable=0;points=[];" vertex="1" connectable="0" parent="V11mCeOOvvxg2wGsEx_k-117">
          <mxGeometry x="-0.8111" y="3" relative="1" as="geometry">
            <mxPoint y="-12" as="offset" />
          </mxGeometry>
        </mxCell>
        <mxCell id="V11mCeOOvvxg2wGsEx_k-120" value="" style="edgeStyle=entityRelationEdgeStyle;fontSize=12;html=1;endArrow=ERoneToMany;rounded=0;exitX=0;exitY=0.5;exitDx=0;exitDy=0;entryX=1;entryY=0.5;entryDx=0;entryDy=0;" edge="1" parent="1" source="V11mCeOOvvxg2wGsEx_k-108" target="V11mCeOOvvxg2wGsEx_k-94">
          <mxGeometry width="100" height="100" relative="1" as="geometry">
            <mxPoint x="1070" y="660" as="sourcePoint" />
            <mxPoint x="1170" y="560" as="targetPoint" />
          </mxGeometry>
        </mxCell>
        <mxCell id="V11mCeOOvvxg2wGsEx_k-121" value="M" style="edgeLabel;html=1;align=center;verticalAlign=middle;resizable=0;points=[];" vertex="1" connectable="0" parent="V11mCeOOvvxg2wGsEx_k-120">
          <mxGeometry x="0.6278" relative="1" as="geometry">
            <mxPoint x="-12" y="-15" as="offset" />
          </mxGeometry>
        </mxCell>
        <mxCell id="V11mCeOOvvxg2wGsEx_k-122" value="1" style="edgeLabel;html=1;align=center;verticalAlign=middle;resizable=0;points=[];" vertex="1" connectable="0" parent="V11mCeOOvvxg2wGsEx_k-120">
          <mxGeometry x="-0.8111" y="3" relative="1" as="geometry">
            <mxPoint y="-12" as="offset" />
          </mxGeometry>
        </mxCell>
        <mxCell id="V11mCeOOvvxg2wGsEx_k-126" value="Customers" style="shape=table;startSize=40;container=1;collapsible=1;childLayout=tableLayout;fixedRows=1;rowLines=0;fontStyle=1;align=center;resizeLast=1;fontSize=16;" vertex="1" parent="1">
          <mxGeometry x="840" y="280" width="160" height="100" as="geometry" />
        </mxCell>
        <mxCell id="V11mCeOOvvxg2wGsEx_k-127" value="" style="shape=partialRectangle;collapsible=0;dropTarget=0;pointerEvents=0;fillColor=none;points=[[0,0.5],[1,0.5]];portConstraint=eastwest;top=0;left=0;right=0;bottom=1;" vertex="1" parent="V11mCeOOvvxg2wGsEx_k-126">
          <mxGeometry y="40" width="160" height="30" as="geometry" />
        </mxCell>
        <mxCell id="V11mCeOOvvxg2wGsEx_k-128" value="PK" style="shape=partialRectangle;overflow=hidden;connectable=0;fillColor=none;top=0;left=0;bottom=0;right=0;fontStyle=1;" vertex="1" parent="V11mCeOOvvxg2wGsEx_k-127">
          <mxGeometry width="30" height="30" as="geometry">
            <mxRectangle width="30" height="30" as="alternateBounds" />
          </mxGeometry>
        </mxCell>
        <mxCell id="V11mCeOOvvxg2wGsEx_k-129" value="CustomerID" style="shape=partialRectangle;overflow=hidden;connectable=0;fillColor=none;top=0;left=0;bottom=0;right=0;align=left;spacingLeft=6;fontStyle=5;" vertex="1" parent="V11mCeOOvvxg2wGsEx_k-127">
          <mxGeometry x="30" width="130" height="30" as="geometry">
            <mxRectangle width="130" height="30" as="alternateBounds" />
          </mxGeometry>
        </mxCell>
        <mxCell id="V11mCeOOvvxg2wGsEx_k-130" value="" style="shape=partialRectangle;collapsible=0;dropTarget=0;pointerEvents=0;fillColor=none;points=[[0,0.5],[1,0.5]];portConstraint=eastwest;top=0;left=0;right=0;bottom=0;" vertex="1" parent="V11mCeOOvvxg2wGsEx_k-126">
          <mxGeometry y="70" width="160" height="30" as="geometry" />
        </mxCell>
        <mxCell id="V11mCeOOvvxg2wGsEx_k-131" value="" style="shape=partialRectangle;overflow=hidden;connectable=0;fillColor=none;top=0;left=0;bottom=0;right=0;" vertex="1" parent="V11mCeOOvvxg2wGsEx_k-130">
          <mxGeometry width="30" height="30" as="geometry">
            <mxRectangle width="30" height="30" as="alternateBounds" />
          </mxGeometry>
        </mxCell>
        <mxCell id="V11mCeOOvvxg2wGsEx_k-132" value="Name" style="shape=partialRectangle;overflow=hidden;connectable=0;fillColor=none;top=0;left=0;bottom=0;right=0;align=left;spacingLeft=6;" vertex="1" parent="V11mCeOOvvxg2wGsEx_k-130">
          <mxGeometry x="30" width="130" height="30" as="geometry">
            <mxRectangle width="130" height="30" as="alternateBounds" />
          </mxGeometry>
        </mxCell>
        <mxCell id="V11mCeOOvvxg2wGsEx_k-133" value="" style="edgeStyle=entityRelationEdgeStyle;fontSize=12;html=1;endArrow=ERoneToMany;rounded=0;exitX=0;exitY=0.5;exitDx=0;exitDy=0;entryX=1;entryY=0.5;entryDx=0;entryDy=0;" edge="1" parent="1" source="V11mCeOOvvxg2wGsEx_k-127" target="V11mCeOOvvxg2wGsEx_k-123">
          <mxGeometry width="100" height="100" relative="1" as="geometry">
            <mxPoint x="1070" y="405" as="sourcePoint" />
            <mxPoint x="720" y="380" as="targetPoint" />
          </mxGeometry>
        </mxCell>
        <mxCell id="V11mCeOOvvxg2wGsEx_k-134" value="M" style="edgeLabel;html=1;align=center;verticalAlign=middle;resizable=0;points=[];" vertex="1" connectable="0" parent="V11mCeOOvvxg2wGsEx_k-133">
          <mxGeometry x="0.6278" relative="1" as="geometry">
            <mxPoint x="-13" y="-8" as="offset" />
          </mxGeometry>
        </mxCell>
        <mxCell id="V11mCeOOvvxg2wGsEx_k-135" value="1" style="edgeLabel;html=1;align=center;verticalAlign=middle;resizable=0;points=[];" vertex="1" connectable="0" parent="V11mCeOOvvxg2wGsEx_k-133">
          <mxGeometry x="-0.8111" y="3" relative="1" as="geometry">
            <mxPoint y="-12" as="offset" />
          </mxGeometry>
        </mxCell>
        <mxCell id="V11mCeOOvvxg2wGsEx_k-136" value="Person" style="shape=table;startSize=40;container=1;collapsible=1;childLayout=tableLayout;fixedRows=1;rowLines=0;fontStyle=1;align=center;resizeLast=1;fontSize=16;" vertex="1" parent="1">
          <mxGeometry x="40" y="650" width="160" height="100" as="geometry" />
        </mxCell>
        <mxCell id="V11mCeOOvvxg2wGsEx_k-137" value="" style="shape=partialRectangle;collapsible=0;dropTarget=0;pointerEvents=0;fillColor=none;points=[[0,0.5],[1,0.5]];portConstraint=eastwest;top=0;left=0;right=0;bottom=1;" vertex="1" parent="V11mCeOOvvxg2wGsEx_k-136">
          <mxGeometry y="40" width="160" height="30" as="geometry" />
        </mxCell>
        <mxCell id="V11mCeOOvvxg2wGsEx_k-138" value="PK" style="shape=partialRectangle;overflow=hidden;connectable=0;fillColor=none;top=0;left=0;bottom=0;right=0;fontStyle=1;" vertex="1" parent="V11mCeOOvvxg2wGsEx_k-137">
          <mxGeometry width="30" height="30" as="geometry">
            <mxRectangle width="30" height="30" as="alternateBounds" />
          </mxGeometry>
        </mxCell>
        <mxCell id="V11mCeOOvvxg2wGsEx_k-139" value="Code" style="shape=partialRectangle;overflow=hidden;connectable=0;fillColor=none;top=0;left=0;bottom=0;right=0;align=left;spacingLeft=6;fontStyle=5;" vertex="1" parent="V11mCeOOvvxg2wGsEx_k-137">
          <mxGeometry x="30" width="130" height="30" as="geometry">
            <mxRectangle width="130" height="30" as="alternateBounds" />
          </mxGeometry>
        </mxCell>
        <mxCell id="V11mCeOOvvxg2wGsEx_k-140" value="" style="shape=partialRectangle;collapsible=0;dropTarget=0;pointerEvents=0;fillColor=none;points=[[0,0.5],[1,0.5]];portConstraint=eastwest;top=0;left=0;right=0;bottom=0;" vertex="1" parent="V11mCeOOvvxg2wGsEx_k-136">
          <mxGeometry y="70" width="160" height="30" as="geometry" />
        </mxCell>
        <mxCell id="V11mCeOOvvxg2wGsEx_k-141" value="" style="shape=partialRectangle;overflow=hidden;connectable=0;fillColor=none;top=0;left=0;bottom=0;right=0;" vertex="1" parent="V11mCeOOvvxg2wGsEx_k-140">
          <mxGeometry width="30" height="30" as="geometry">
            <mxRectangle width="30" height="30" as="alternateBounds" />
          </mxGeometry>
        </mxCell>
        <mxCell id="V11mCeOOvvxg2wGsEx_k-142" value="Name" style="shape=partialRectangle;overflow=hidden;connectable=0;fillColor=none;top=0;left=0;bottom=0;right=0;align=left;spacingLeft=6;" vertex="1" parent="V11mCeOOvvxg2wGsEx_k-140">
          <mxGeometry x="30" width="130" height="30" as="geometry">
            <mxRectangle width="130" height="30" as="alternateBounds" />
          </mxGeometry>
        </mxCell>
        <mxCell id="V11mCeOOvvxg2wGsEx_k-170" value="Teacher" style="shape=table;startSize=40;container=1;collapsible=1;childLayout=tableLayout;fixedRows=1;rowLines=0;fontStyle=1;align=center;resizeLast=1;fontSize=16;" vertex="1" parent="1">
          <mxGeometry x="320" y="600" width="160" height="100" as="geometry" />
        </mxCell>
        <mxCell id="V11mCeOOvvxg2wGsEx_k-174" value="" style="shape=partialRectangle;collapsible=0;dropTarget=0;pointerEvents=0;fillColor=none;points=[[0,0.5],[1,0.5]];portConstraint=eastwest;top=0;left=0;right=0;bottom=0;" vertex="1" parent="V11mCeOOvvxg2wGsEx_k-170">
          <mxGeometry y="40" width="160" height="30" as="geometry" />
        </mxCell>
        <mxCell id="V11mCeOOvvxg2wGsEx_k-175" value="FK" style="shape=partialRectangle;overflow=hidden;connectable=0;fillColor=none;top=0;left=0;bottom=0;right=0;" vertex="1" parent="V11mCeOOvvxg2wGsEx_k-174">
          <mxGeometry width="30" height="30" as="geometry">
            <mxRectangle width="30" height="30" as="alternateBounds" />
          </mxGeometry>
        </mxCell>
        <mxCell id="V11mCeOOvvxg2wGsEx_k-176" value="PersonCode" style="shape=partialRectangle;overflow=hidden;connectable=0;fillColor=none;top=0;left=0;bottom=0;right=0;align=left;spacingLeft=6;" vertex="1" parent="V11mCeOOvvxg2wGsEx_k-174">
          <mxGeometry x="30" width="130" height="30" as="geometry">
            <mxRectangle width="130" height="30" as="alternateBounds" />
          </mxGeometry>
        </mxCell>
        <mxCell id="V11mCeOOvvxg2wGsEx_k-205" style="shape=partialRectangle;collapsible=0;dropTarget=0;pointerEvents=0;fillColor=none;points=[[0,0.5],[1,0.5]];portConstraint=eastwest;top=0;left=0;right=0;bottom=0;" vertex="1" parent="V11mCeOOvvxg2wGsEx_k-170">
          <mxGeometry y="70" width="160" height="30" as="geometry" />
        </mxCell>
        <mxCell id="V11mCeOOvvxg2wGsEx_k-206" style="shape=partialRectangle;overflow=hidden;connectable=0;fillColor=none;top=0;left=0;bottom=0;right=0;" vertex="1" parent="V11mCeOOvvxg2wGsEx_k-205">
          <mxGeometry width="30" height="30" as="geometry">
            <mxRectangle width="30" height="30" as="alternateBounds" />
          </mxGeometry>
        </mxCell>
        <mxCell id="V11mCeOOvvxg2wGsEx_k-207" value="Speciality" style="shape=partialRectangle;overflow=hidden;connectable=0;fillColor=none;top=0;left=0;bottom=0;right=0;align=left;spacingLeft=6;" vertex="1" parent="V11mCeOOvvxg2wGsEx_k-205">
          <mxGeometry x="30" width="130" height="30" as="geometry">
            <mxRectangle width="130" height="30" as="alternateBounds" />
          </mxGeometry>
        </mxCell>
        <mxCell id="V11mCeOOvvxg2wGsEx_k-177" value="Student" style="shape=table;startSize=40;container=1;collapsible=1;childLayout=tableLayout;fixedRows=1;rowLines=0;fontStyle=1;align=center;resizeLast=1;fontSize=16;" vertex="1" parent="1">
          <mxGeometry x="320" y="720" width="160" height="100" as="geometry" />
        </mxCell>
        <mxCell id="V11mCeOOvvxg2wGsEx_k-181" value="" style="shape=partialRectangle;collapsible=0;dropTarget=0;pointerEvents=0;fillColor=none;points=[[0,0.5],[1,0.5]];portConstraint=eastwest;top=0;left=0;right=0;bottom=0;" vertex="1" parent="V11mCeOOvvxg2wGsEx_k-177">
          <mxGeometry y="40" width="160" height="30" as="geometry" />
        </mxCell>
        <mxCell id="V11mCeOOvvxg2wGsEx_k-182" value="FK" style="shape=partialRectangle;overflow=hidden;connectable=0;fillColor=none;top=0;left=0;bottom=0;right=0;" vertex="1" parent="V11mCeOOvvxg2wGsEx_k-181">
          <mxGeometry width="30" height="30" as="geometry">
            <mxRectangle width="30" height="30" as="alternateBounds" />
          </mxGeometry>
        </mxCell>
        <mxCell id="V11mCeOOvvxg2wGsEx_k-183" value="PersonCode" style="shape=partialRectangle;overflow=hidden;connectable=0;fillColor=none;top=0;left=0;bottom=0;right=0;align=left;spacingLeft=6;" vertex="1" parent="V11mCeOOvvxg2wGsEx_k-181">
          <mxGeometry x="30" width="130" height="30" as="geometry">
            <mxRectangle width="130" height="30" as="alternateBounds" />
          </mxGeometry>
        </mxCell>
        <mxCell id="V11mCeOOvvxg2wGsEx_k-208" style="shape=partialRectangle;collapsible=0;dropTarget=0;pointerEvents=0;fillColor=none;points=[[0,0.5],[1,0.5]];portConstraint=eastwest;top=0;left=0;right=0;bottom=0;" vertex="1" parent="V11mCeOOvvxg2wGsEx_k-177">
          <mxGeometry y="70" width="160" height="30" as="geometry" />
        </mxCell>
        <mxCell id="V11mCeOOvvxg2wGsEx_k-209" style="shape=partialRectangle;overflow=hidden;connectable=0;fillColor=none;top=0;left=0;bottom=0;right=0;" vertex="1" parent="V11mCeOOvvxg2wGsEx_k-208">
          <mxGeometry width="30" height="30" as="geometry">
            <mxRectangle width="30" height="30" as="alternateBounds" />
          </mxGeometry>
        </mxCell>
        <mxCell id="V11mCeOOvvxg2wGsEx_k-210" value="Class" style="shape=partialRectangle;overflow=hidden;connectable=0;fillColor=none;top=0;left=0;bottom=0;right=0;align=left;spacingLeft=6;" vertex="1" parent="V11mCeOOvvxg2wGsEx_k-208">
          <mxGeometry x="30" width="130" height="30" as="geometry">
            <mxRectangle width="130" height="30" as="alternateBounds" />
          </mxGeometry>
        </mxCell>
        <mxCell id="V11mCeOOvvxg2wGsEx_k-199" value="" style="edgeStyle=entityRelationEdgeStyle;fontSize=12;html=1;endArrow=none;rounded=0;exitX=0;exitY=0.5;exitDx=0;exitDy=0;entryX=1;entryY=0.5;entryDx=0;entryDy=0;endFill=0;" edge="1" parent="1" source="V11mCeOOvvxg2wGsEx_k-174" target="V11mCeOOvvxg2wGsEx_k-137">
          <mxGeometry width="100" height="100" relative="1" as="geometry">
            <mxPoint x="270" y="549.9999999999999" as="sourcePoint" />
            <mxPoint x="150" y="619.9999999999999" as="targetPoint" />
          </mxGeometry>
        </mxCell>
        <mxCell id="V11mCeOOvvxg2wGsEx_k-200" value="1" style="edgeLabel;html=1;align=center;verticalAlign=middle;resizable=0;points=[];" vertex="1" connectable="0" parent="V11mCeOOvvxg2wGsEx_k-199">
          <mxGeometry x="0.6278" relative="1" as="geometry">
            <mxPoint x="-12" y="-15" as="offset" />
          </mxGeometry>
        </mxCell>
        <mxCell id="V11mCeOOvvxg2wGsEx_k-201" value="1" style="edgeLabel;html=1;align=center;verticalAlign=middle;resizable=0;points=[];" vertex="1" connectable="0" parent="V11mCeOOvvxg2wGsEx_k-199">
          <mxGeometry x="-0.8111" y="3" relative="1" as="geometry">
            <mxPoint y="-12" as="offset" />
          </mxGeometry>
        </mxCell>
        <mxCell id="V11mCeOOvvxg2wGsEx_k-202" value="" style="edgeStyle=entityRelationEdgeStyle;fontSize=12;html=1;endArrow=none;rounded=0;exitX=0;exitY=0.5;exitDx=0;exitDy=0;entryX=1;entryY=0.5;entryDx=0;entryDy=0;endFill=0;" edge="1" parent="1" source="V11mCeOOvvxg2wGsEx_k-181" target="V11mCeOOvvxg2wGsEx_k-137">
          <mxGeometry width="100" height="100" relative="1" as="geometry">
            <mxPoint x="330" y="665" as="sourcePoint" />
            <mxPoint x="210" y="715" as="targetPoint" />
          </mxGeometry>
        </mxCell>
        <mxCell id="V11mCeOOvvxg2wGsEx_k-204" value="1" style="edgeLabel;html=1;align=center;verticalAlign=middle;resizable=0;points=[];" vertex="1" connectable="0" parent="V11mCeOOvvxg2wGsEx_k-202">
          <mxGeometry x="-0.8111" y="3" relative="1" as="geometry">
            <mxPoint y="-12" as="offset" />
          </mxGeometry>
        </mxCell>
      </root>
    </mxGraphModel>
  </diagram>
  <diagram id="QW_gqfHmkjgJe7WiAbhq" name="Page-2">
    <mxGraphModel dx="1157" dy="705" grid="1" gridSize="10" guides="1" tooltips="1" connect="1" arrows="1" fold="1" page="1" pageScale="1" pageWidth="1100" pageHeight="850" math="0" shadow="0">
      <root>
        <mxCell id="0" />
        <mxCell id="1" parent="0" />
        <mxCell id="WPVFOJHf_XC9w_SOTUty-1" value="&lt;font style=&quot;font-size: 20px;&quot;&gt;Employees&lt;/font&gt;" style="whiteSpace=wrap;html=1;align=center;fontSize=16;" vertex="1" parent="1">
          <mxGeometry x="200" y="210" width="120" height="60" as="geometry" />
        </mxCell>
        <mxCell id="WPVFOJHf_XC9w_SOTUty-2" value="&lt;font style=&quot;font-size: 20px;&quot;&gt;Projects&lt;/font&gt;" style="whiteSpace=wrap;html=1;align=center;fontSize=16;" vertex="1" parent="1">
          <mxGeometry x="760" y="210" width="120" height="60" as="geometry" />
        </mxCell>
        <mxCell id="WPVFOJHf_XC9w_SOTUty-3" value="&lt;font style=&quot;font-size: 20px;&quot;&gt;Primary&lt;br&gt;Skills&lt;/font&gt;" style="shape=ext;margin=3;double=1;whiteSpace=wrap;html=1;align=center;fontSize=16;" vertex="1" parent="1">
          <mxGeometry x="200" y="440" width="120" height="80" as="geometry" />
        </mxCell>
        <mxCell id="WPVFOJHf_XC9w_SOTUty-5" value="&lt;font style=&quot;font-size: 20px;&quot;&gt;Assigments&lt;/font&gt;" style="shape=rhombus;perimeter=rhombusPerimeter;whiteSpace=wrap;html=1;align=center;fontSize=16;" vertex="1" parent="1">
          <mxGeometry x="440" y="210" width="200" height="60" as="geometry" />
        </mxCell>
        <mxCell id="WPVFOJHf_XC9w_SOTUty-10" value="&lt;font style=&quot;font-size: 16px;&quot;&gt;Has&lt;/font&gt;" style="shape=rhombus;double=1;perimeter=rhombusPerimeter;whiteSpace=wrap;html=1;align=center;fontSize=20;" vertex="1" parent="1">
          <mxGeometry x="200" y="330" width="120" height="60" as="geometry" />
        </mxCell>
        <mxCell id="WPVFOJHf_XC9w_SOTUty-14" value="" style="endArrow=none;html=1;rounded=0;fontSize=16;" edge="1" parent="1" target="WPVFOJHf_XC9w_SOTUty-3">
          <mxGeometry relative="1" as="geometry">
            <mxPoint x="260" y="390" as="sourcePoint" />
            <mxPoint x="420" y="390" as="targetPoint" />
          </mxGeometry>
        </mxCell>
        <mxCell id="WPVFOJHf_XC9w_SOTUty-15" value="1" style="resizable=0;html=1;align=right;verticalAlign=bottom;fontSize=16;" connectable="0" vertex="1" parent="WPVFOJHf_XC9w_SOTUty-14">
          <mxGeometry x="1" relative="1" as="geometry" />
        </mxCell>
        <mxCell id="WPVFOJHf_XC9w_SOTUty-16" value="" style="endArrow=none;html=1;rounded=0;fontSize=16;entryX=0.5;entryY=1;entryDx=0;entryDy=0;" edge="1" parent="1" target="WPVFOJHf_XC9w_SOTUty-1">
          <mxGeometry relative="1" as="geometry">
            <mxPoint x="260" y="330" as="sourcePoint" />
            <mxPoint x="420" y="330" as="targetPoint" />
          </mxGeometry>
        </mxCell>
        <mxCell id="WPVFOJHf_XC9w_SOTUty-17" value="M" style="resizable=0;html=1;align=right;verticalAlign=bottom;fontSize=16;" connectable="0" vertex="1" parent="WPVFOJHf_XC9w_SOTUty-16">
          <mxGeometry x="1" relative="1" as="geometry">
            <mxPoint y="30" as="offset" />
          </mxGeometry>
        </mxCell>
        <mxCell id="WPVFOJHf_XC9w_SOTUty-18" value="EmpID" style="ellipse;whiteSpace=wrap;html=1;align=center;fontStyle=4;fontSize=16;" vertex="1" parent="1">
          <mxGeometry x="70" y="220" width="100" height="40" as="geometry" />
        </mxCell>
        <mxCell id="WPVFOJHf_XC9w_SOTUty-19" value="EmpName" style="ellipse;whiteSpace=wrap;html=1;align=center;fontSize=16;" vertex="1" parent="1">
          <mxGeometry x="90" y="160" width="100" height="40" as="geometry" />
        </mxCell>
        <mxCell id="WPVFOJHf_XC9w_SOTUty-20" value="IsConsultant" style="ellipse;whiteSpace=wrap;html=1;align=center;fontSize=16;" vertex="1" parent="1">
          <mxGeometry x="200" y="140" width="120" height="40" as="geometry" />
        </mxCell>
        <mxCell id="WPVFOJHf_XC9w_SOTUty-21" value="" style="endArrow=none;html=1;rounded=0;fontSize=16;entryX=0;entryY=0.5;entryDx=0;entryDy=0;exitX=1;exitY=0.5;exitDx=0;exitDy=0;" edge="1" parent="1" source="WPVFOJHf_XC9w_SOTUty-18" target="WPVFOJHf_XC9w_SOTUty-1">
          <mxGeometry relative="1" as="geometry">
            <mxPoint x="170" y="239.5" as="sourcePoint" />
            <mxPoint x="330" y="239.5" as="targetPoint" />
          </mxGeometry>
        </mxCell>
        <mxCell id="WPVFOJHf_XC9w_SOTUty-22" value="" style="endArrow=none;html=1;rounded=0;fontSize=16;exitX=0.5;exitY=0;exitDx=0;exitDy=0;entryX=0.5;entryY=1;entryDx=0;entryDy=0;" edge="1" parent="1" source="WPVFOJHf_XC9w_SOTUty-1" target="WPVFOJHf_XC9w_SOTUty-20">
          <mxGeometry relative="1" as="geometry">
            <mxPoint x="470" y="340" as="sourcePoint" />
            <mxPoint x="630" y="340" as="targetPoint" />
          </mxGeometry>
        </mxCell>
        <mxCell id="WPVFOJHf_XC9w_SOTUty-23" value="" style="endArrow=none;html=1;rounded=0;fontSize=16;exitX=0;exitY=0;exitDx=0;exitDy=0;entryX=1;entryY=1;entryDx=0;entryDy=0;" edge="1" parent="1" source="WPVFOJHf_XC9w_SOTUty-1" target="WPVFOJHf_XC9w_SOTUty-19">
          <mxGeometry relative="1" as="geometry">
            <mxPoint x="470" y="340" as="sourcePoint" />
            <mxPoint x="630" y="340" as="targetPoint" />
          </mxGeometry>
        </mxCell>
        <mxCell id="WPVFOJHf_XC9w_SOTUty-24" value="ProjectID" style="ellipse;whiteSpace=wrap;html=1;align=center;fontStyle=4;fontSize=16;" vertex="1" parent="1">
          <mxGeometry x="910" y="220" width="100" height="40" as="geometry" />
        </mxCell>
        <mxCell id="WPVFOJHf_XC9w_SOTUty-25" value="ProjectName" style="ellipse;whiteSpace=wrap;html=1;align=center;fontSize=16;" vertex="1" parent="1">
          <mxGeometry x="760" y="140" width="120" height="40" as="geometry" />
        </mxCell>
        <mxCell id="WPVFOJHf_XC9w_SOTUty-26" value="" style="endArrow=none;html=1;rounded=0;fontSize=16;entryX=1;entryY=0.5;entryDx=0;entryDy=0;" edge="1" parent="1" target="WPVFOJHf_XC9w_SOTUty-2">
          <mxGeometry relative="1" as="geometry">
            <mxPoint x="910" y="240" as="sourcePoint" />
            <mxPoint x="1040" y="240" as="targetPoint" />
          </mxGeometry>
        </mxCell>
        <mxCell id="WPVFOJHf_XC9w_SOTUty-27" value="" style="endArrow=none;html=1;rounded=0;fontSize=16;exitX=0.5;exitY=0;exitDx=0;exitDy=0;entryX=0.5;entryY=1;entryDx=0;entryDy=0;" edge="1" parent="1" target="WPVFOJHf_XC9w_SOTUty-25" source="WPVFOJHf_XC9w_SOTUty-2">
          <mxGeometry relative="1" as="geometry">
            <mxPoint x="1040" y="210" as="sourcePoint" />
            <mxPoint x="1470" y="340" as="targetPoint" />
          </mxGeometry>
        </mxCell>
        <mxCell id="WPVFOJHf_XC9w_SOTUty-29" value="SkillID" style="ellipse;whiteSpace=wrap;html=1;align=center;fontStyle=4;fontSize=16;" vertex="1" parent="1">
          <mxGeometry x="70" y="460" width="100" height="40" as="geometry" />
        </mxCell>
        <mxCell id="WPVFOJHf_XC9w_SOTUty-30" value="SkillName" style="ellipse;whiteSpace=wrap;html=1;align=center;fontSize=16;" vertex="1" parent="1">
          <mxGeometry x="200" y="550" width="120" height="40" as="geometry" />
        </mxCell>
        <mxCell id="WPVFOJHf_XC9w_SOTUty-31" value="" style="endArrow=none;html=1;rounded=0;fontSize=16;entryX=0;entryY=0.5;entryDx=0;entryDy=0;exitX=1;exitY=0.5;exitDx=0;exitDy=0;" edge="1" parent="1" source="WPVFOJHf_XC9w_SOTUty-29">
          <mxGeometry relative="1" as="geometry">
            <mxPoint x="170" y="479.5" as="sourcePoint" />
            <mxPoint x="200" y="480" as="targetPoint" />
          </mxGeometry>
        </mxCell>
        <mxCell id="WPVFOJHf_XC9w_SOTUty-32" value="" style="endArrow=none;html=1;rounded=0;fontSize=16;exitX=0.5;exitY=1;exitDx=0;exitDy=0;entryX=0.5;entryY=0;entryDx=0;entryDy=0;" edge="1" parent="1" target="WPVFOJHf_XC9w_SOTUty-30" source="WPVFOJHf_XC9w_SOTUty-3">
          <mxGeometry relative="1" as="geometry">
            <mxPoint x="200" y="450" as="sourcePoint" />
            <mxPoint x="630" y="580" as="targetPoint" />
          </mxGeometry>
        </mxCell>
        <mxCell id="WPVFOJHf_XC9w_SOTUty-33" value="WorkHour" style="ellipse;whiteSpace=wrap;html=1;align=center;fontSize=16;" vertex="1" parent="1">
          <mxGeometry x="480" y="140" width="120" height="40" as="geometry" />
        </mxCell>
        <mxCell id="WPVFOJHf_XC9w_SOTUty-34" value="" style="endArrow=none;html=1;rounded=0;fontSize=16;exitX=0.5;exitY=0;exitDx=0;exitDy=0;entryX=0.5;entryY=1;entryDx=0;entryDy=0;" edge="1" parent="1" source="WPVFOJHf_XC9w_SOTUty-5" target="WPVFOJHf_XC9w_SOTUty-33">
          <mxGeometry relative="1" as="geometry">
            <mxPoint x="470" y="450" as="sourcePoint" />
            <mxPoint x="630" y="450" as="targetPoint" />
          </mxGeometry>
        </mxCell>
        <mxCell id="WPVFOJHf_XC9w_SOTUty-35" value="BillingRate&lt;br&gt;&lt;br&gt;(based on if consultant&#39;s&lt;br&gt;skill fits project)" style="ellipse;whiteSpace=wrap;html=1;align=center;dashed=1;fontSize=16;" vertex="1" parent="1">
          <mxGeometry x="440" y="300" width="200" height="120" as="geometry" />
        </mxCell>
        <mxCell id="WPVFOJHf_XC9w_SOTUty-36" value="" style="endArrow=none;html=1;rounded=0;fontSize=16;exitX=0.5;exitY=1;exitDx=0;exitDy=0;" edge="1" parent="1" source="WPVFOJHf_XC9w_SOTUty-5" target="WPVFOJHf_XC9w_SOTUty-35">
          <mxGeometry relative="1" as="geometry">
            <mxPoint x="470" y="450" as="sourcePoint" />
            <mxPoint x="630" y="450" as="targetPoint" />
          </mxGeometry>
        </mxCell>
        <mxCell id="WPVFOJHf_XC9w_SOTUty-37" value="TotalCharge&lt;br&gt;&lt;br&gt;(sum of the products of each&lt;br&gt;consultant&#39;s BillingRate and&lt;br&gt;their WorkHour)" style="ellipse;whiteSpace=wrap;html=1;align=center;dashed=1;fontSize=16;" vertex="1" parent="1">
          <mxGeometry x="680" y="301" width="280" height="120" as="geometry" />
        </mxCell>
        <mxCell id="WPVFOJHf_XC9w_SOTUty-39" value="" style="endArrow=none;html=1;rounded=0;fontSize=16;exitX=0.5;exitY=1;exitDx=0;exitDy=0;entryX=0.5;entryY=0;entryDx=0;entryDy=0;" edge="1" parent="1" source="WPVFOJHf_XC9w_SOTUty-2" target="WPVFOJHf_XC9w_SOTUty-37">
          <mxGeometry relative="1" as="geometry">
            <mxPoint x="470" y="450" as="sourcePoint" />
            <mxPoint x="630" y="450" as="targetPoint" />
          </mxGeometry>
        </mxCell>
        <mxCell id="WPVFOJHf_XC9w_SOTUty-43" value="" style="endArrow=none;html=1;rounded=0;fontSize=16;entryX=1;entryY=0.5;entryDx=0;entryDy=0;exitX=0;exitY=0.5;exitDx=0;exitDy=0;" edge="1" parent="1" source="WPVFOJHf_XC9w_SOTUty-5" target="WPVFOJHf_XC9w_SOTUty-1">
          <mxGeometry relative="1" as="geometry">
            <mxPoint x="270" y="340" as="sourcePoint" />
            <mxPoint x="270" y="280" as="targetPoint" />
          </mxGeometry>
        </mxCell>
        <mxCell id="WPVFOJHf_XC9w_SOTUty-44" value="M" style="resizable=0;html=1;align=right;verticalAlign=bottom;fontSize=16;" connectable="0" vertex="1" parent="WPVFOJHf_XC9w_SOTUty-43">
          <mxGeometry x="1" relative="1" as="geometry">
            <mxPoint x="20" as="offset" />
          </mxGeometry>
        </mxCell>
        <mxCell id="WPVFOJHf_XC9w_SOTUty-45" value="" style="endArrow=none;html=1;rounded=0;fontSize=16;entryX=0;entryY=0.5;entryDx=0;entryDy=0;exitX=1;exitY=0.5;exitDx=0;exitDy=0;" edge="1" parent="1" source="WPVFOJHf_XC9w_SOTUty-5" target="WPVFOJHf_XC9w_SOTUty-2">
          <mxGeometry relative="1" as="geometry">
            <mxPoint x="280" y="350" as="sourcePoint" />
            <mxPoint x="280" y="290" as="targetPoint" />
          </mxGeometry>
        </mxCell>
        <mxCell id="WPVFOJHf_XC9w_SOTUty-46" value="M" style="resizable=0;html=1;align=right;verticalAlign=bottom;fontSize=16;" connectable="0" vertex="1" parent="WPVFOJHf_XC9w_SOTUty-45">
          <mxGeometry x="1" relative="1" as="geometry">
            <mxPoint x="-10" as="offset" />
          </mxGeometry>
        </mxCell>
      </root>
    </mxGraphModel>
  </diagram>
  <diagram id="VziKCZkiVmI3vtMsgpRg" name="Page-3">
    <mxGraphModel dx="1157" dy="705" grid="1" gridSize="10" guides="1" tooltips="1" connect="1" arrows="1" fold="1" page="1" pageScale="1" pageWidth="1100" pageHeight="850" math="0" shadow="0">
      <root>
        <mxCell id="0" />
        <mxCell id="1" parent="0" />
      </root>
    </mxGraphModel>
  </diagram>
</mxfile>
